<?xml version="1.0" encoding="utf-8"?>
<!-- Generator: Adobe Illustrator 19.1.1, SVG Export Plug-In . SVG Version: 6.00 Build 0)  -->
<svg version="1.1" id="Lager_1" xmlns="http://www.w3.org/2000/svg" xmlns:xlink="http://www.w3.org/1999/xlink" x="0px" y="0px"
	 viewBox="-520 164 329 300" style="enable-background:new -520 164 329 300;" xml:space="preserve">
<style type="text/css">
	.st0{opacity:0.3;fill:#4D4D4D;}
</style>
<path class="st0" d="M-311.7,240.1c2.3,1.4,3.1,4.3,1.7,6.6s-4.3,3.1-6.6,1.7c-44.5-26.2-97.3-25.8-113.1,0.9
	c-1.4,2.3-4.3,3.1-6.6,1.7c-2.3-1.4-3.1-4.3-1.7-6.6C-419.3,212.7-361.5,210.7-311.7,240.1z M-287.1,198.3
	c-73.8-43.5-160.1-33.9-192.7,21.4c-20.3,34.5-15,78.6,9.7,117.4c-0.1,0.2-0.3,0.3-0.4,0.6c-8.8,15-29.5,24.5-39.4,30.1c0,0,0,0,0,0
	c-0.9,0.7-1.8,1.6-2.4,2.6c-2.5,4.2-1.1,9.6,3.1,12c0.8,0.5,2.3,1.1,2.2,1.1c28.6,11.1,67.4,1.6,77.2-1.9
	c7.6,6.1,15.8,11.9,24.6,17.1c73.8,43.5,160.1,33.9,192.7-21.4S-213.2,241.8-287.1,198.3z M-395.4,382.1
	c-7.7-4.5-15.2-9.7-22.3-15.5c-0.7-0.6-1.5-1.1-2.3-1.6c-5-2.9-11-3.5-16.5-1.5c-6.1,2.2-22,6-38.3,6c7.7-5.6,15.2-12.4,20.4-21
	c0.4-0.5,0.7-1,1-1.5c3.7-6.3,3.6-14.1-0.3-20.2c-21.6-34.1-25.1-70.4-9.3-97.2c27.2-46.1,101.7-52.6,166.2-14.6
	c64.5,38,94.8,106.4,67.7,152.5S-330.9,420.1-395.4,382.1z"/>
</svg>
