<?xml version="1.0" encoding="utf-8"?>
<!-- Generator: Adobe Illustrator 19.1.1, SVG Export Plug-In . SVG Version: 6.00 Build 0)  -->
<svg version="1.1" id="Lager_1" xmlns="http://www.w3.org/2000/svg" xmlns:xlink="http://www.w3.org/1999/xlink" x="0px" y="0px"
	 viewBox="0 0 559 560" style="enable-background:new 0 0 559 560;" xml:space="preserve">
<style type="text/css">
	.st0{fill:#00A99D;}
	.st1{fill:none;stroke:#F6EAD5;stroke-width:3;stroke-miterlimit:10;}
</style>
<path class="st0" d="M554.1,279.2c0,150.9-122.3,273.2-273.2,273.2S7.8,430.1,7.8,279.2S130.1,6.1,280.9,6.1
	S554.1,128.4,554.1,279.2z M280.9,142.6c-75.4,0-136.6,61.2-136.6,136.6s61.2,136.6,136.6,136.6s136.6-61.2,136.6-136.6
	S356.4,142.6,280.9,142.6z"/>
<path class="st1" d="M14.6,218.2l132.7,37.3 M103.1,38l102.4,130.6 M267.3,148.3V0.3 M574.4,294.5l-188.6-15.3 M330.1,560L302,384.6
	 M189.6,357.3L57.9,474"/>
</svg>
