<?xml version="1.0" encoding="utf-8"?>
<!-- Generator: Adobe Illustrator 19.1.1, SVG Export Plug-In . SVG Version: 6.00 Build 0)  -->
<svg version="1.1" id="Capa_1" xmlns="http://www.w3.org/2000/svg" xmlns:xlink="http://www.w3.org/1999/xlink" x="0px" y="0px"
	 viewBox="-426 228.8 105.2 105.2" style="enable-background:new -426 228.8 105.2 105.2;" xml:space="preserve">
<style type="text/css">
	.st0{fill:#F15A24;}
</style>
<g>
	<g>
		<path class="st0" d="M-341.4,291.7l-1.6-47.8h-7.7l-1.8,47.8h-4.8v-7.2l-12.4,6.7v-7.1l-12.7,6.7v-6.3l-12.4,6.7v-7.1l-15.9,8.4
			v41.4h41.6v-11.4h21.6v11.4h9.4v-42.2H-341.4z M-393.8,305.3h-11v-7.2h11V305.3z M-377.7,305.3h-11v-7.2h11V305.3L-377.7,305.3z
			 M-361.7,305.3h-11v-7.2h11V305.3z M-345.6,305.3h-11v-7.2h11V305.3z"/>
		<path class="st0" d="M-370.8,239.8c-0.8,0-1.7-0.2-2.4-0.4c-3.1-0.8-5.1-1.9-5.1-1.9s0.3,0.5,1,1.2s1.8,1.7,3.4,2.6
			c0.8,0.4,1.7,0.8,2.7,1.1s2.2,0.4,3.4,0.3c2.5-0.2,4.9-1.6,6.6-3.5c0.7-0.7,1.6-1.8,2.2-2.2c0.6-0.5,1.4-1.1,2.2-1.3
			c1.5-0.6,3.3-0.6,4.8-0.2c1.5,0.4,2.7,0.9,3.6,1.4c0.9,0.4,1.4,0.7,1.4,0.7s-0.3-0.5-0.9-1.3c-0.7-0.8-1.7-1.8-3.3-2.7
			c-0.8-0.4-1.8-0.8-2.9-1c-1.1-0.1-2.3-0.2-3.5,0.2c-0.6,0.1-1.2,0.4-1.8,0.7c-0.6,0.2-1.1,0.6-1.7,1c-1.2,0.9-1.6,1.6-2.6,2.4
			c-1.3,1.5-2.8,2.4-4.5,2.8C-369.1,239.8-369.9,239.9-370.8,239.8z"/>
		<path class="st0" d="M-394.6,237.6c0.8,0.4,1.7,0.8,2.7,1.1s2.2,0.4,3.4,0.3c2.5-0.2,5-1.6,6.6-3.5c0.7-0.7,1.5-1.8,2.2-2.2
			c0.6-0.5,1.4-1.1,2.2-1.3c1.5-0.6,3.3-0.6,4.7-0.2c1.5,0.4,2.7,0.9,3.6,1.4c0.9,0.4,1.4,0.7,1.4,0.7s-0.3-0.5-0.9-1.3
			c-0.7-0.8-1.7-1.8-3.3-2.7c-0.8-0.4-1.8-0.8-2.9-1c-1.1-0.1-2.3-0.2-3.5,0.2c-0.6,0.1-1.2,0.4-1.8,0.7c-0.6,0.2-1.1,0.6-1.7,1
			c-1.2,0.9-1.7,1.6-2.6,2.4c-1.3,1.5-2.8,2.4-4.5,2.8c-0.8,0.2-1.7,0.3-2.6,0.2c-0.8,0-1.7-0.2-2.4-0.4c-3.1-0.8-5.1-1.9-5.1-1.9
			s0.3,0.5,1,1.2C-397.3,235.8-396.2,236.8-394.6,237.6z"/>
	</g>
</g>
</svg>
