<?xml version="1.0" encoding="utf-8"?>
<!-- Generator: Adobe Illustrator 19.1.1, SVG Export Plug-In . SVG Version: 6.00 Build 0)  -->
<svg version="1.1" id="Capa_1" xmlns="http://www.w3.org/2000/svg" xmlns:xlink="http://www.w3.org/1999/xlink" x="0px" y="0px"
	 viewBox="-464 265 31 31" style="enable-background:new -464 265 31 31;" xml:space="preserve">
<style type="text/css">
	.st0{fill:#00A99D;}
</style>
<g>
	<g>
		<path class="st0" d="M-453.2,279.1H-464v14.5h8.8h9.8v-19.5h-7.8C-453.2,274.2-453.2,279.1-453.2,279.1z M-460.7,285.5h-1.8v-1.8
			h1.8V285.5z M-460.7,282.8h-1.8V281h1.8V282.8z M-458,285.5h-1.8v-1.8h1.8V285.5z M-458,282.8h-1.8V281h1.8V282.8z M-455.2,285.5
			h-1.8v-1.8h1.8V285.5z M-455.2,282.8h-1.8V281h1.8V282.8z M-452.5,285.5h-1.8v-1.8h1.8C-452.5,283.7-452.5,285.5-452.5,285.5z
			 M-448.8,275.5h1.8v1.8h-1.8V275.5z M-448.8,278.2h1.8v1.8h-1.8V278.2z M-448.8,281h1.8v1.8h-1.8V281z M-448.8,283.7h1.8v1.8h-1.8
			V283.7z M-451.5,275.5h1.8v1.8h-1.8V275.5z M-451.5,278.2h1.8v1.8h-1.8V278.2z M-451.5,281h1.8v1.8h-1.8V281z M-451.5,283.7h1.8
			v1.8h-1.8V283.7z M-452.5,282.8h-1.8V281h1.8C-452.5,281-452.5,282.8-452.5,282.8z"/>
		<polygon class="st0" points="-442.9,274.2 -444.5,293.6 -439.5,293.6 -441.1,274.2 		"/>
		<polygon class="st0" points="-442.9,273.8 -441.1,273.8 -441.1,273.2 -442,273.2 -442.9,273.2 		"/>
		<path class="st0" d="M-434.2,268.9c0.2-1.6-2.2-2.3-3.5-0.5c-0.8-1.8-3.9-0.8-3.4,0.8c-2.2,0.4-1.8,2.8-0.9,3.9
			c0-1,0.4-1.8,1.8-1.9c0.3,1,1.6,1.4,2.5,0.8c0.5,0.5,2.2,0.8,2.9-0.2C-432.4,272.7-432.7,269.5-434.2,268.9z"/>
	</g>
</g>
</svg>
