<?xml version="1.0" encoding="utf-8"?>
<!-- Generator: Adobe Illustrator 19.1.1, SVG Export Plug-In . SVG Version: 6.00 Build 0)  -->
<svg version="1.1" id="Capa_1" xmlns="http://www.w3.org/2000/svg" xmlns:xlink="http://www.w3.org/1999/xlink" x="0px" y="0px"
	 viewBox="-3 -196.9 952.9 952.9" style="enable-background:new -3 -196.9 952.9 952.9;" xml:space="preserve">
<style type="text/css">
	.st0{fill:#00A99D;}
</style>
<g>
	<g>
		<path class="st0" d="M91.5,49.2v52.6c13.3-23.2,62.6-40.4,121.5-40.4c58.8,0,108.1,17.2,121.5,40.3V49.2
			c0-28.4-54.4-51.4-121.5-51.4S91.5,20.9,91.5,49.2z"/>
		<path class="st0" d="M90.5,726.2c0,5.5,4.5,10,10,10h222.9c5.5,0,10-4.5,10-10V156.9c-13.3-23.1-62.6-40.3-121.5-40.3
			c-58.8,0-108.2,17.2-121.5,40.4L90.5,726.2L90.5,726.2z"/>
		<path class="st0" d="M-3,415v311.2c0,5.5,4.5,10,10,10h53.5c5.5,0,10-4.5,10-10V415c0-5.5-4.5-10-10-10H7C1.5,405-3,409.5-3,415z"
			/>
		<path class="st0" d="M273.9-35.2c-0.2,2.4-0.2,4.6,0,6.4c0.1,0.9,0.1,1.8,0.2,2.6c0.1,0.8,0.2,1.5,0.3,2.1c0.5,2.5,1,3.8,1,3.8
			s0.8-1.1,2.4-2.9c0.8-0.9,1.8-2,2.9-3.2c0.6-0.6,1.2-1.2,1.9-1.9c0.7-0.6,1.4-1.3,2.2-2c1.5-1.4,3.3-2.8,5.2-4.2
			c1-0.7,2-1.4,3-2.1c1.1-0.7,2.1-1.4,3.2-2.1c4.5-2.8,9.6-5.4,15.2-7.7c11.3-4.6,24.7-7.9,39.7-10.3c7.5-1.2,15.4-2.2,23.5-3
			c2.1-0.2,4.1-0.4,6.2-0.6c2.3-0.3,4.7-0.5,7-0.8c4.4-0.5,10.1-1.3,15.1-2.2c10.1-1.8,20.3-4.4,30.2-7.8
			c9.9-3.4,19.6-7.7,28.6-12.9c9-5.2,17.4-11.4,24.5-18.3c7.2-6.9,12.9-14.5,17.2-22c4.3-7.5,6.9-14.9,8.5-21.4
			c1.6-6.5,2.1-12.2,2.3-16.9c0.2-4.6-0.1-8.3-0.4-10.7c-0.3-2.5-0.5-3.8-0.5-3.8s-1,0.9-2.8,2.6c-0.9,0.9-2,1.9-3.2,3.1
			c-0.6,0.6-1.3,1.2-2,1.9c-0.7,0.7-1.4,1.4-2.2,2.1c-3.2,3-6.9,6.4-11.2,9.8c-4.3,3.4-9.1,6.9-14.4,9.9c-5.3,3-11,5.8-17.2,8.3
			c-6.2,2.4-13,4.6-20.2,6.6c-7.2,2-15,3.8-23,5.5c-8.1,1.7-16.4,3.3-25,4.9c-4.3,0.7-8,1.5-12.9,2.3l-3.5,0.6l-3.5,0.7
			c-0.2,0-0.3,0.1-0.5,0.1c1.3-1.9,2.4-3.8,3.5-5.7c4.3-7.5,6.9-14.9,8.5-21.4c1.6-6.5,2.1-12.2,2.3-16.9c0.2-4.6-0.1-8.3-0.4-10.7
			c-0.3-2.5-0.5-3.8-0.5-3.8s-1,0.9-2.8,2.6c-0.9,0.9-2,1.9-3.2,3.1c-0.6,0.6-1.3,1.2-2,1.9c-0.7,0.7-1.4,1.4-2.2,2.1
			c-3.2,3-6.9,6.4-11.2,9.8c-4.3,3.4-9.1,6.9-14.4,9.9c-5.3,3-11,5.8-17.2,8.3c-6.2,2.4-13,4.6-20.2,6.6c-7.2,2-15,3.8-23,5.5
			c-8.1,1.7-16.4,3.3-25,4.9c-4.3,0.7-8,1.5-12.9,2.3l-3.5,0.6l-3.5,0.7c-2.6,0.5-5.1,1-7.7,1.6c-10.2,2.3-20.3,5.6-29.7,9.8
			c-9.5,4.2-18.3,9.3-26.1,15.1c-7.8,5.9-14.5,12.5-19.8,19.3c-5.3,6.8-9,13.9-11.5,20.4c-2.4,6.5-3.6,12.4-3.8,17.3
			c-0.2,2.4-0.2,4.6,0,6.4c0.1,0.9,0.1,1.8,0.2,2.6c0.1,0.8,0.2,1.5,0.3,2.1c0.5,2.5,1,3.8,1,3.8s0.8-1.1,2.4-2.9
			c0.8-0.9,1.8-2,2.9-3.2c0.6-0.6,1.2-1.2,1.9-1.9c0.7-0.6,1.4-1.3,2.2-2c1.5-1.4,3.3-2.8,5.2-4.2c1-0.7,2-1.4,3-2.1
			c1.1-0.7,2.1-1.4,3.2-2.1c4.5-2.8,9.6-5.4,15.2-7.7c11.3-4.6,24.7-7.9,39.7-10.3c7.5-1.2,15.4-2.2,23.5-3c2.1-0.2,4.1-0.4,6.2-0.6
			c2.3-0.3,4.7-0.5,7-0.8c4.4-0.5,10.1-1.3,15.1-2.2c2.9-0.5,5.9-1.1,8.8-1.8c-2.6,4.3-4.6,8.5-6.1,12.5
			C275.3-46,274.2-40.1,273.9-35.2z"/>
		<path class="st0" d="M849.4,736.2h90.5c5.5,0,10-4.5,10-10V458.8V405v-97.2c0-8-9-12.8-15.6-8.3l-135,91.3
			c-6.6,4.5-15.6-0.3-15.6-8.3v-74.7c0-8-9-12.8-15.6-8.3l-135,91.3c-6.6,4.5-15.6-0.3-15.6-8.3v-74.7c0-8-9-12.8-15.6-8.3
			L448.3,403.3c-1.7,1.1-3.6,1.7-5.6,1.7h-78.2c-5.5,0-10,4.5-10,10v311.2c0,5.5,4.5,10,10,10h324.9c5.5,0,10-4.5,10-10v-91
			c0-5.5,4.5-10,10-10h120c5.5,0,10,4.5,10,10v91C839.4,731.7,843.8,736.2,849.4,736.2z M479.8,552.4c0,5.5-4.5,10-10,10h-54.4
			c-5.5,0-10-4.5-10-10v-54.4c0-5.5,4.5-10,10-10h54.4c5.5,0,10,4.5,10,10L479.8,552.4L479.8,552.4z M584.7,552.4
			c0,5.5-4.5,10-10,10h-54.4c-5.5,0-10-4.5-10-10v-54.4c0-5.5,4.5-10,10-10h54.4c5.5,0,10,4.5,10,10L584.7,552.4L584.7,552.4z
			 M689.6,552.4c0,5.5-4.5,10-10,10h-54.4c-5.5,0-10-4.5-10-10v-54.4c0-5.5,4.5-10,10-10h54.4c5.5,0,10,4.5,10,10V552.4z
			 M794.5,552.4c0,5.5-4.5,10-10,10H730c-5.5,0-10-4.5-10-10v-54.4c0-5.5,4.5-10,10-10h54.4c5.5,0,10,4.5,10,10V552.4z M834.9,562.4
			c-5.5,0-10-4.5-10-10v-54.4c0-5.5,4.5-10,10-10h54.4c5.5,0,10,4.5,10,10v54.4c0,5.5-4.5,10-10,10H834.9z"/>
	</g>
</g>
</svg>
