<?xml version="1.0" encoding="utf-8"?>
<!-- Generator: Adobe Illustrator 19.1.1, SVG Export Plug-In . SVG Version: 6.00 Build 0)  -->
<svg version="1.1" id="Lager_1" xmlns="http://www.w3.org/2000/svg" xmlns:xlink="http://www.w3.org/1999/xlink" x="0px" y="0px"
	 viewBox="0 0 960 1000" style="enable-background:new 0 0 960 1000;" xml:space="preserve">
<style type="text/css">
	.st0{fill:url(#SVGID_1_);stroke:#00A99D;stroke-width:8;stroke-miterlimit:10;}
	.st1{opacity:0.5;}
	.st2{fill:#534741;}
	.st3{fill:#00A99D;}
	.st4{fill:#FFFFFF;}
	.st5{clip-path:url(#SVGID_3_);fill:#00A99D;}
</style>
<radialGradient id="SVGID_1_" cx="485.4667" cy="454" r="439.3239" gradientUnits="userSpaceOnUse">
	<stop  offset="0.7388" style="stop-color:#FFFFFF;stop-opacity:0"/>
	<stop  offset="0.8057" style="stop-color:#FFFFFF;stop-opacity:0.4301"/>
	<stop  offset="0.8165" style="stop-color:#FFFFFF;stop-opacity:0.5"/>
	<stop  offset="0.8231" style="stop-color:#DBC01F"/>
	<stop  offset="0.8304" style="stop-color:#F1DC3A"/>
	<stop  offset="0.835" style="stop-color:#F5E13F"/>
	<stop  offset="0.8386" style="stop-color:#DBC01F"/>
	<stop  offset="0.8523" style="stop-color:#E1CB46"/>
	<stop  offset="0.872" style="stop-color:#E9D976"/>
	<stop  offset="0.8922" style="stop-color:#F0E4A0"/>
	<stop  offset="0.9126" style="stop-color:#F5EEC3"/>
	<stop  offset="0.9332" style="stop-color:#FAF5DD"/>
	<stop  offset="0.9543" style="stop-color:#FDFBF0"/>
	<stop  offset="0.976" style="stop-color:#FEFEFB"/>
	<stop  offset="0.9993" style="stop-color:#FFFFFF"/>
</radialGradient>
<ellipse class="st0" cx="485.5" cy="454" rx="435.6" ry="443"/>
<g class="st1">
	<path class="st2" d="M688.5,84.3c2.9,3,7.4,3.8,11,3.4c3.6-0.4,6.7-1.8,10.3-2.2c3-0.3,7.3,0.6,8.8,3.5c0.6,1.1,0.6,2.2,0.8,3.3
		c0.8,4.6,5.3,9.4,10.5,11.2c3.9,1.4,7.8,1.1,11.7,1.8c3.9,0.7,8.6,3.2,9.6,6.8c0.9,3.1-1.6,5.4-1.4,8.4c0.2,4.4,5.5,8.6,7.2,13.1
		c1.4,3.7,0,7.4-3.2,8.7c-3.2,1.4-8.1,0.3-11.5-2.6c-4.5-3.8-5.6-9.4-8.5-14.1c-2.9-4.7-7.8-8.7-13.1-10.8
		c-3.7-1.4-7.7-2.1-10.9-4.5c-5.1-3.7-6.2-9.9-10.5-14.4c-3.6-3.8-9.7-6.6-10.6-11.1"/>
</g>
<g>
	<path class="st3" d="M206,172.6l-1.9,1.4c-0.2,0.2-0.4,0.2-0.6,0.2c-0.2,0-0.4,0-0.6-0.1l-2-1.3l-3.9,3.1l0.8,2.3
		c0.1,0.2,0,0.4,0,0.6c-0.1,0.2-0.2,0.4-0.4,0.5l-1.9,1.5l-4-13.5l2.5-1.9L206,172.6z M199.1,171.6l-3.2-2.1
		c-0.2-0.1-0.5-0.3-0.7-0.5c-0.3-0.2-0.6-0.4-0.9-0.6c0.2,0.3,0.3,0.7,0.4,1c0.1,0.3,0.2,0.6,0.3,0.8l1.2,3.6L199.1,171.6z"/>
	<path class="st3" d="M206.7,158.5l-2.9,2.3l6.6,8.5l-2.4,1.9l-6.6-8.5l-2.9,2.3L197,163l8.2-6.4L206.7,158.5z"/>
	<path class="st3" d="M218.1,146.6l8,10.4l-2.1,1.6l-4.6-6c-0.1-0.1-0.2-0.3-0.3-0.5c-0.1-0.2-0.2-0.3-0.3-0.5l1.4,7.5
		c0,0.2,0,0.4-0.1,0.6c-0.1,0.2-0.2,0.4-0.4,0.5l-0.3,0.3c-0.2,0.1-0.4,0.2-0.6,0.3c-0.2,0-0.4,0-0.6-0.1l-6.9-3.2
		c0.1,0.2,0.3,0.3,0.4,0.5c0.1,0.2,0.3,0.3,0.4,0.4l4.6,6l-2.1,1.6l-8-10.4l1.8-1.4c0.1-0.1,0.2-0.1,0.3-0.2
		c0.1-0.1,0.2-0.1,0.2-0.1c0.1,0,0.2,0,0.3,0c0.1,0,0.2,0,0.3,0.1l6.7,3.2c0.2,0.1,0.5,0.2,0.7,0.4c0.2,0.1,0.5,0.3,0.7,0.4
		c-0.1-0.3-0.2-0.5-0.2-0.8c-0.1-0.3-0.1-0.5-0.2-0.8l-1.4-7.3c0-0.1,0-0.2,0-0.3c0-0.1,0-0.2,0.1-0.2c0-0.1,0.1-0.1,0.2-0.2
		c0.1-0.1,0.2-0.1,0.3-0.2L218.1,146.6z"/>
	<path class="st3" d="M234.3,142.4c0.6,0.7,1,1.5,1.2,2.4c0.2,0.8,0.3,1.7,0.2,2.5c-0.1,0.8-0.4,1.7-0.8,2.4s-1.1,1.5-1.9,2.1
		c-0.8,0.6-1.6,1.1-2.5,1.3c-0.9,0.2-1.7,0.3-2.6,0.2c-0.8-0.1-1.6-0.4-2.4-0.8c-0.8-0.4-1.4-1-2-1.8c-0.6-0.7-1-1.5-1.2-2.4
		c-0.2-0.8-0.3-1.7-0.2-2.5c0.1-0.8,0.4-1.7,0.8-2.4s1.1-1.5,1.9-2.1c0.8-0.6,1.6-1.1,2.5-1.3s1.7-0.3,2.6-0.2
		c0.8,0.1,1.6,0.4,2.4,0.8C233,141,233.7,141.6,234.3,142.4z M231.8,144.3c-0.4-0.5-0.8-0.9-1.3-1.2c-0.5-0.3-0.9-0.5-1.4-0.6
		c-0.5-0.1-0.9-0.1-1.4,0.1s-0.9,0.4-1.4,0.7c-0.5,0.4-0.8,0.8-1.1,1.2c-0.2,0.4-0.4,0.9-0.4,1.4c0,0.5,0,1,0.2,1.5
		c0.2,0.5,0.5,1,0.9,1.5c0.4,0.5,0.8,0.9,1.3,1.2c0.5,0.3,0.9,0.5,1.4,0.6c0.5,0.1,0.9,0.1,1.4-0.1c0.5-0.1,1-0.4,1.4-0.7
		c0.5-0.4,0.8-0.7,1.1-1.2c0.2-0.4,0.4-0.9,0.4-1.4c0-0.5,0-1-0.2-1.5C232.5,145.3,232.2,144.8,231.8,144.3z"/>
	<path class="st3" d="M239,133.8c0,0.2,0,0.3,0,0.4s-0.1,0.2-0.2,0.3c-0.1,0.1-0.3,0.1-0.4,0.2c-0.2,0-0.4,0.1-0.6,0.1
		c-0.2,0-0.5,0.1-0.7,0.2c-0.3,0.1-0.5,0.2-0.8,0.4c-0.5,0.3-0.7,0.7-0.8,1.1c-0.1,0.4,0,0.7,0.3,1c0.2,0.2,0.4,0.3,0.6,0.4
		c0.2,0,0.5,0,0.8,0c0.3-0.1,0.6-0.2,1-0.3c0.3-0.1,0.7-0.3,1.1-0.4c0.4-0.1,0.7-0.2,1.1-0.3c0.4-0.1,0.8-0.1,1.1,0
		c0.4,0,0.8,0.2,1.1,0.4c0.4,0.2,0.7,0.5,1.1,1c0.4,0.5,0.6,1,0.8,1.5c0.2,0.5,0.2,1.1,0.1,1.7c-0.1,0.6-0.3,1.1-0.6,1.6
		c-0.3,0.5-0.8,1-1.4,1.5c-0.3,0.2-0.7,0.5-1.1,0.7c-0.4,0.2-0.8,0.4-1.2,0.5c-0.4,0.1-0.8,0.2-1.2,0.3c-0.4,0-0.8,0-1.1,0l-0.2-1.7
		c0-0.1,0-0.3,0.1-0.4c0.1-0.1,0.1-0.2,0.2-0.3c0.1-0.1,0.3-0.2,0.5-0.2c0.2,0,0.5,0,0.7-0.1c0.3,0,0.6-0.1,0.9-0.2
		c0.3-0.1,0.6-0.3,0.9-0.5c0.4-0.3,0.7-0.7,0.8-1.1c0.1-0.4,0-0.8-0.3-1.2c-0.2-0.2-0.4-0.4-0.7-0.4c-0.3,0-0.5,0-0.8,0
		s-0.6,0.2-0.9,0.3c-0.3,0.1-0.7,0.3-1,0.4c-0.4,0.1-0.7,0.2-1.1,0.3c-0.4,0.1-0.8,0.1-1.1,0c-0.4-0.1-0.8-0.2-1.2-0.4
		s-0.8-0.6-1.1-1.1c-0.3-0.4-0.5-0.8-0.6-1.3c-0.1-0.5-0.2-1-0.1-1.5c0.1-0.5,0.3-1,0.6-1.6c0.3-0.5,0.7-1,1.3-1.4
		c0.3-0.2,0.6-0.5,1-0.6c0.3-0.2,0.7-0.3,1-0.4c0.3-0.1,0.7-0.2,1-0.2c0.3,0,0.7-0.1,1,0L239,133.8z"/>
	<path class="st3" d="M243.4,130l2,2.6l3.5-2.7l1.4,1.9l-3.5,2.7l3.1,4l-2.4,1.9l-8-10.4l6.7-5.2l1.4,1.8L243.4,130z"/>
	<path class="st3" d="M264.1,127.6l-1.9,1.4c-0.2,0.2-0.4,0.2-0.6,0.2c-0.2,0-0.4,0-0.6-0.1l-2-1.3l-3.9,3.1l0.8,2.3
		c0.1,0.2,0,0.4,0,0.6c-0.1,0.2-0.2,0.4-0.4,0.5l-1.9,1.5l-4-13.5l2.5-1.9L264.1,127.6z M249.1,120.2c0.1,0.2,0.2,0.3,0.2,0.5
		c0,0.2,0,0.4,0,0.5c0,0.2-0.1,0.3-0.2,0.5c-0.1,0.2-0.2,0.3-0.4,0.4c-0.1,0.1-0.3,0.2-0.5,0.2c-0.2,0-0.3,0.1-0.5,0
		c-0.2,0-0.3-0.1-0.5-0.2c-0.2-0.1-0.3-0.2-0.4-0.4c-0.1-0.1-0.2-0.3-0.2-0.5c0-0.2-0.1-0.4,0-0.5c0-0.2,0.1-0.3,0.2-0.5
		c0.1-0.2,0.2-0.3,0.3-0.4c0.2-0.1,0.3-0.2,0.5-0.3c0.2,0,0.4-0.1,0.5,0c0.2,0,0.4,0.1,0.5,0.2C248.8,119.9,249,120.1,249.1,120.2z
		 M257.2,126.6l-3.2-2.1c-0.2-0.1-0.5-0.3-0.7-0.5c-0.3-0.2-0.6-0.4-0.9-0.6c0.2,0.3,0.3,0.7,0.4,1c0.1,0.3,0.2,0.6,0.3,0.8l1.2,3.6
		L257.2,126.6z M252.4,117.7c0.1,0.2,0.2,0.3,0.2,0.5c0,0.2,0,0.3,0,0.5s-0.1,0.3-0.2,0.5c-0.1,0.2-0.2,0.3-0.4,0.4
		c-0.2,0.1-0.3,0.2-0.5,0.3c-0.2,0.1-0.4,0.1-0.5,0c-0.2,0-0.3-0.1-0.5-0.2c-0.2-0.1-0.3-0.2-0.4-0.4c-0.1-0.1-0.2-0.3-0.2-0.5
		c0-0.2-0.1-0.4,0-0.5c0-0.2,0.1-0.3,0.2-0.5c0.1-0.2,0.2-0.3,0.4-0.4c0.2-0.1,0.3-0.2,0.5-0.2c0.2,0,0.4-0.1,0.5,0
		c0.2,0,0.3,0.1,0.5,0.2S252.3,117.5,252.4,117.7z"/>
	<path class="st3" d="M273.4,120.4l-2.2,1.7c-0.4,0.3-0.8,0.4-1.2,0.2l-4.1-1.7c-0.2-0.1-0.3-0.1-0.5-0.1c-0.1,0-0.3,0.1-0.5,0.2
		l-0.6,0.5l3,3.8l-2.4,1.9l-8-10.4l3.4-2.6c0.7-0.6,1.4-1,2.1-1.3c0.6-0.3,1.2-0.4,1.8-0.4c0.5,0,1,0.2,1.5,0.4
		c0.4,0.3,0.8,0.6,1.2,1c0.3,0.3,0.5,0.7,0.6,1.1c0.1,0.4,0.2,0.7,0.2,1.1c0,0.4,0,0.8-0.1,1.2s-0.3,0.8-0.5,1.2
		c0.2,0,0.4-0.1,0.7,0c0.2,0,0.5,0.1,0.7,0.1L273.4,120.4z M264,118.9c0.3-0.3,0.6-0.5,0.7-0.8c0.2-0.3,0.3-0.5,0.3-0.8
		c0-0.3,0-0.5-0.1-0.8c-0.1-0.2-0.2-0.5-0.4-0.7c-0.4-0.5-0.8-0.7-1.3-0.7c-0.5,0-1.1,0.2-1.7,0.7l-1,0.7l2.4,3.1L264,118.9z"/>
	<path class="st3" d="M270.1,109.3l1.9,2.4l3.3-2.5l1.4,1.8l-3.3,2.5l1.9,2.5l4.3-3.3l1.4,1.8l-6.7,5.2l-8-10.4l6.7-5.2l1.4,1.8
		L270.1,109.3z"/>
	<path class="st3" d="M283.4,96l8,10.4l-1.3,1c-0.2,0.1-0.4,0.2-0.5,0.3c-0.2,0-0.4,0-0.6,0l-9.7-2.4c0.2,0.2,0.3,0.3,0.5,0.5
		c0.1,0.2,0.3,0.3,0.4,0.5l4.3,5.6l-2.1,1.6l-8-10.4l1.3-1c0.1-0.1,0.2-0.1,0.3-0.2c0.1,0,0.2-0.1,0.2-0.1c0.1,0,0.2,0,0.2,0
		c0.1,0,0.2,0,0.3,0.1l9.8,2.4c-0.2-0.2-0.3-0.4-0.5-0.5c-0.2-0.2-0.3-0.4-0.4-0.5l-4.2-5.5L283.4,96z"/>
</g>
<polygon class="st2" points="663.8,136.4 713.2,167.4 734.4,133.7 713.6,138.5 723.8,122.2 697.8,131.6 709.4,113.2 685.5,124.2 
	695.4,88.3 686.9,84 652.1,129.1 "/>
<rect x="696.6" y="139.6" transform="matrix(0.847 0.5316 -0.5316 0.847 182.9819 -350.1801)" class="st4" width="6.4" height="6.4"/>
<rect x="705.3" y="145" transform="matrix(0.847 0.5316 -0.5316 0.847 187.226 -353.9782)" class="st4" width="6.4" height="6.4"/>
<rect x="687.9" y="134.1" transform="matrix(0.847 0.5316 -0.5316 0.847 178.7285 -346.3736)" class="st4" width="6.4" height="6.4"/>
<g>
	<path class="st2" d="M783,170.9l-13.8,3l-1.5-2.3l7.9-11.7l1.4,2c0.1,0.2,0.2,0.4,0.2,0.6c0,0.2-0.1,0.4-0.2,0.6l-4.4,6
		c-0.2,0.3-0.4,0.6-0.6,0.9s-0.5,0.6-0.8,0.9c0.4-0.2,0.7-0.3,1.1-0.4c0.4-0.1,0.7-0.2,1-0.3l7.2-1.8c0.2,0,0.4,0,0.6,0
		c0.2,0.1,0.4,0.2,0.5,0.4L783,170.9z"/>
	<path class="st2" d="M778.7,188l-1.3-2c-0.1-0.2-0.2-0.4-0.2-0.6c0-0.2,0.1-0.4,0.2-0.6l1.5-1.9l-2.8-4.1l-2.3,0.6
		c-0.2,0-0.4,0-0.6,0c-0.2-0.1-0.4-0.2-0.5-0.4l-1.3-2l13.7-3.1l1.7,2.6L778.7,188z M787,173.5c-0.2,0.1-0.3,0.2-0.5,0.2
		c-0.2,0-0.4,0-0.5,0c-0.2,0-0.3-0.1-0.5-0.2c-0.2-0.1-0.3-0.2-0.4-0.4c-0.1-0.1-0.2-0.3-0.2-0.5c0-0.2,0-0.3,0-0.5
		c0-0.2,0.1-0.3,0.2-0.5c0.1-0.2,0.2-0.3,0.4-0.4c0.2-0.1,0.3-0.2,0.5-0.2c0.2,0,0.4,0,0.5,0c0.2,0,0.3,0.1,0.5,0.2
		c0.2,0.1,0.3,0.2,0.4,0.4c0.1,0.2,0.2,0.3,0.2,0.5c0,0.2,0,0.4,0,0.5c0,0.2-0.1,0.3-0.2,0.5C787.3,173.3,787.2,173.4,787,173.5z
		 M780.1,181.2l2.3-3c0.1-0.2,0.3-0.4,0.5-0.7c0.2-0.3,0.4-0.5,0.7-0.8c-0.4,0.1-0.7,0.2-1,0.3c-0.3,0.1-0.6,0.2-0.8,0.2l-3.6,1
		L780.1,181.2z M789.3,176.9c-0.2,0.1-0.3,0.2-0.5,0.2c-0.2,0-0.4,0-0.5,0c-0.2,0-0.3-0.1-0.5-0.2c-0.2-0.1-0.3-0.2-0.4-0.4
		c-0.1-0.2-0.2-0.3-0.2-0.5c0-0.2,0-0.4,0-0.5s0.1-0.3,0.2-0.5c0.1-0.2,0.2-0.3,0.4-0.4c0.2-0.1,0.3-0.2,0.5-0.2c0.2,0,0.4,0,0.5,0
		c0.2,0,0.3,0.1,0.5,0.2c0.2,0.1,0.3,0.2,0.4,0.4c0.1,0.2,0.2,0.3,0.2,0.5c0,0.2,0,0.4,0,0.5c0,0.2-0.1,0.3-0.2,0.5
		S789.5,176.8,789.3,176.9z"/>
	<path class="st2" d="M785.5,198.2l-1.7-2.5c-0.1-0.2-0.2-0.3-0.2-0.5c0-0.2,0.1-0.3,0.1-0.4l2.3-4.7c-0.1,0-0.3,0.1-0.4,0.1
		l-4.9,0.3c-0.1,0-0.3,0-0.4-0.1c-0.1,0-0.3-0.1-0.4-0.3l-1.6-2.4l8-0.3l3-6.9l1.7,2.5c0.1,0.2,0.2,0.3,0.2,0.4c0,0.1,0,0.2-0.1,0.3
		l-2.2,4.6c0.1,0,0.2,0,0.2,0c0.1,0,0.2,0,0.3,0l4.5-0.3c0.2,0,0.3,0,0.4,0.1c0.1,0,0.2,0.1,0.3,0.2l1.6,2.4l-7.5,0.1L785.5,198.2z"
		/>
	<path class="st2" d="M800.3,201l-2.1-3.1l-8.9,6l-1.7-2.5l8.9-6l-2.1-3.1l2-1.3l5.8,8.6L800.3,201z"/>
	<path class="st2" d="M809.6,210.4l-10.9,7.3l-1.7-2.5l4.6-3.1l-3-4.4l-4.6,3.1l-1.7-2.5l10.9-7.3l1.7,2.5l-4.5,3.1l3,4.4l4.5-3.1
		L809.6,210.4z"/>
	<path class="st2" d="M805.2,223c0.2,0.3,0.5,0.6,0.8,0.8c0.3,0.2,0.6,0.3,0.9,0.4c0.3,0,0.7,0,1-0.1c0.4-0.1,0.7-0.3,1.1-0.5
		l6.4-4.3l1.7,2.5l-6.4,4.3c-0.7,0.4-1.4,0.8-2.1,0.9c-0.7,0.2-1.4,0.2-2.1,0c-0.7-0.1-1.3-0.4-1.9-0.8c-0.6-0.4-1.2-1-1.6-1.7
		c-0.5-0.7-0.8-1.5-1-2.2c-0.2-0.7-0.2-1.4-0.1-2.1c0.1-0.7,0.4-1.3,0.8-1.9c0.4-0.6,1-1.1,1.6-1.6l6.4-4.3l1.7,2.5l-6.4,4.3
		c-0.4,0.3-0.7,0.5-0.9,0.8c-0.2,0.3-0.4,0.6-0.5,0.9c-0.1,0.3-0.1,0.7,0,1C804.8,222.3,804.9,222.7,805.2,223z"/>
	<path class="st2" d="M820.4,231.2c-0.2,0-0.3,0-0.4-0.1c-0.1,0-0.2-0.1-0.3-0.3c-0.1-0.1-0.1-0.3-0.1-0.4c0-0.2,0-0.4-0.1-0.6
		c0-0.2-0.1-0.5-0.1-0.7c-0.1-0.3-0.2-0.5-0.4-0.8c-0.3-0.5-0.7-0.8-1-0.9c-0.4-0.1-0.7,0-1.1,0.2c-0.2,0.1-0.4,0.3-0.4,0.6
		c-0.1,0.2-0.1,0.5,0,0.8c0,0.3,0.1,0.6,0.2,1c0.1,0.3,0.2,0.7,0.3,1.1c0.1,0.4,0.2,0.8,0.2,1.1c0.1,0.4,0,0.8,0,1.1
		c-0.1,0.4-0.2,0.7-0.4,1.1c-0.2,0.4-0.6,0.7-1,1c-0.5,0.3-1,0.6-1.6,0.7s-1.1,0.1-1.7,0c-0.5-0.1-1.1-0.3-1.6-0.7
		c-0.5-0.4-1-0.8-1.4-1.5c-0.2-0.3-0.4-0.7-0.6-1.1s-0.3-0.8-0.4-1.2c-0.1-0.4-0.2-0.8-0.2-1.2c0-0.4,0-0.8,0.1-1.1l1.7,0
		c0.1,0,0.2,0,0.4,0.1c0.1,0.1,0.2,0.1,0.3,0.3c0.1,0.1,0.2,0.3,0.2,0.5c0,0.2,0,0.5,0,0.7c0,0.3,0.1,0.6,0.1,0.9
		c0.1,0.3,0.2,0.6,0.5,1c0.3,0.5,0.6,0.7,1,0.9c0.4,0.1,0.8,0,1.2-0.3c0.3-0.2,0.4-0.4,0.5-0.6c0.1-0.2,0.1-0.5,0-0.8
		c0-0.3-0.1-0.6-0.2-1c-0.1-0.3-0.2-0.7-0.3-1.1c-0.1-0.4-0.2-0.7-0.2-1.1c-0.1-0.4,0-0.8,0-1.1c0.1-0.4,0.2-0.8,0.5-1.1
		c0.3-0.4,0.6-0.7,1.1-1.1c0.4-0.3,0.9-0.5,1.4-0.6c0.5-0.1,1-0.1,1.5,0c0.5,0.1,1,0.3,1.5,0.7c0.5,0.3,0.9,0.8,1.3,1.4
		c0.2,0.3,0.4,0.7,0.6,1c0.2,0.4,0.3,0.7,0.4,1.1c0.1,0.4,0.1,0.7,0.2,1c0,0.3,0,0.7,0,1L820.4,231.2z"/>
	<path class="st2" d="M822.4,240.7l2.6,3.9l-4.6,3.1c-0.8-0.3-1.5-0.7-2.1-1.2c-0.6-0.5-1.1-1.1-1.6-1.8c-0.6-0.9-1-1.8-1.2-2.7
		c-0.2-0.9-0.2-1.8-0.1-2.7c0.1-0.9,0.5-1.7,0.9-2.4c0.5-0.7,1.1-1.4,1.9-1.9c0.8-0.5,1.6-0.9,2.5-1.1c0.9-0.2,1.7-0.2,2.5,0
		c0.8,0.2,1.6,0.5,2.4,1c0.8,0.5,1.4,1.2,2,2.1c0.3,0.5,0.6,0.9,0.7,1.4c0.2,0.4,0.3,0.9,0.4,1.3c0.1,0.4,0.1,0.8,0.2,1.2
		c0,0.4,0,0.8-0.1,1.1l-1.6,0c-0.3,0-0.5-0.1-0.6-0.2c-0.2-0.2-0.2-0.4-0.3-0.7c0-0.3,0-0.5-0.1-0.8c0-0.2-0.1-0.5-0.2-0.7
		c-0.1-0.2-0.2-0.4-0.3-0.7c-0.1-0.2-0.3-0.5-0.4-0.7c-0.3-0.5-0.7-0.8-1.1-1.1s-0.9-0.4-1.4-0.5c-0.5-0.1-1,0-1.5,0.1
		c-0.5,0.1-1,0.4-1.6,0.7c-0.6,0.4-1,0.8-1.4,1.3c-0.3,0.5-0.6,0.9-0.7,1.4c-0.1,0.5-0.1,1,0,1.5c0.1,0.5,0.3,1,0.7,1.5
		c0.2,0.3,0.4,0.6,0.6,0.8c0.2,0.2,0.5,0.4,0.7,0.6l1.6-1.1l-0.7-1.1c-0.1-0.2-0.1-0.3-0.1-0.5c0-0.1,0.1-0.3,0.2-0.4L822.4,240.7z"
		/>
	<path class="st2" d="M827,259.6l-1.3-2c-0.1-0.2-0.2-0.4-0.2-0.6c0-0.2,0.1-0.4,0.2-0.6l1.5-1.9l-2.8-4.1l-2.3,0.6
		c-0.2,0-0.4,0-0.6,0c-0.2-0.1-0.4-0.2-0.5-0.4l-1.3-2l13.7-3.1l1.7,2.6L827,259.6z M828.4,252.8l2.3-3c0.1-0.2,0.3-0.4,0.5-0.7
		c0.2-0.3,0.4-0.5,0.7-0.8c-0.4,0.1-0.7,0.2-1,0.3c-0.3,0.1-0.6,0.2-0.8,0.2l-3.6,1L828.4,252.8z"/>
	<path class="st2" d="M840.3,260.7c-0.2,0-0.3,0-0.4-0.1c-0.1,0-0.2-0.1-0.3-0.3c-0.1-0.1-0.1-0.3-0.1-0.4c0-0.2,0-0.4-0.1-0.6
		c0-0.2-0.1-0.5-0.1-0.7s-0.2-0.5-0.4-0.8c-0.3-0.5-0.7-0.8-1-0.9c-0.4-0.1-0.7,0-1.1,0.2c-0.2,0.1-0.4,0.3-0.4,0.6
		c-0.1,0.2-0.1,0.5,0,0.8c0,0.3,0.1,0.6,0.2,1c0.1,0.3,0.2,0.7,0.3,1.1c0.1,0.4,0.2,0.8,0.2,1.1c0.1,0.4,0,0.8,0,1.1
		c-0.1,0.4-0.2,0.7-0.4,1.1c-0.2,0.4-0.6,0.7-1,1c-0.5,0.3-1,0.6-1.6,0.7c-0.6,0.1-1.1,0.1-1.7,0c-0.5-0.1-1.1-0.3-1.6-0.7
		c-0.5-0.4-1-0.8-1.4-1.5c-0.2-0.3-0.4-0.7-0.6-1.1c-0.2-0.4-0.3-0.8-0.4-1.2c-0.1-0.4-0.2-0.8-0.2-1.2c0-0.4,0-0.8,0.1-1.1l1.7,0
		c0.1,0,0.2,0,0.4,0.1c0.1,0.1,0.2,0.1,0.3,0.3c0.1,0.1,0.2,0.3,0.2,0.5c0,0.2,0,0.5,0,0.7c0,0.3,0.1,0.6,0.1,0.9
		c0.1,0.3,0.2,0.6,0.5,1c0.3,0.5,0.6,0.7,1,0.9c0.4,0.1,0.8,0,1.2-0.3c0.3-0.2,0.4-0.4,0.5-0.6c0.1-0.2,0.1-0.5,0-0.8
		c0-0.3-0.1-0.6-0.2-1c-0.1-0.3-0.2-0.7-0.3-1.1c-0.1-0.4-0.2-0.7-0.2-1.1c-0.1-0.4,0-0.8,0-1.1c0.1-0.4,0.2-0.8,0.5-1.1
		c0.3-0.4,0.6-0.7,1.1-1.1c0.4-0.3,0.9-0.5,1.4-0.6c0.5-0.1,1-0.1,1.5,0c0.5,0.1,1,0.3,1.5,0.7c0.5,0.3,0.9,0.8,1.3,1.4
		c0.2,0.3,0.4,0.7,0.6,1c0.2,0.4,0.3,0.7,0.4,1.1c0.1,0.4,0.1,0.7,0.2,1c0,0.3,0,0.7,0,1L840.3,260.7z"/>
	<path class="st2" d="M843.8,265.3l-2.5,1.7l2.3,3.4l-1.9,1.3l-2.3-3.4l-2.6,1.7l3,4.5l-1.9,1.3l-4.7-7l10.9-7.3l4.7,7l-1.9,1.3
		L843.8,265.3z"/>
	<path class="st2" d="M844.9,286.2l-1.5-2.3c-0.3-0.4-0.3-0.8-0.1-1.2l1.9-3.9c0.1-0.2,0.1-0.3,0.1-0.5c0-0.1-0.1-0.3-0.2-0.5
		l-0.4-0.6l-4,2.7l-1.7-2.5l10.9-7.3l2.4,3.5c0.5,0.8,0.9,1.5,1.1,2.2c0.2,0.7,0.3,1.3,0.2,1.8s-0.2,1-0.5,1.5
		c-0.3,0.4-0.7,0.8-1.1,1.1c-0.4,0.2-0.7,0.4-1.1,0.5c-0.4,0.1-0.8,0.2-1.2,0.2c-0.4,0-0.8-0.1-1.2-0.2s-0.8-0.3-1.1-0.6
		c0,0.2,0,0.4,0,0.7c0,0.2-0.1,0.5-0.2,0.7L844.9,286.2z M847,277c0.2,0.3,0.5,0.6,0.7,0.8c0.2,0.2,0.5,0.3,0.8,0.3
		c0.3,0.1,0.5,0,0.8,0c0.3-0.1,0.5-0.2,0.7-0.3c0.5-0.3,0.7-0.7,0.8-1.2c0.1-0.5-0.1-1.1-0.6-1.7l-0.7-1l-3.2,2.2L847,277z"/>
</g>
<g>
	<g id="layer1_2_" transform="translate(0,-452.36218)">
		<g id="g3606_2_" transform="matrix(1.9140664,0,0,1.9140664,-1228.1565,-289.91756)">
			<path id="path3502_2_" class="st3" d="M895.4,431.7c-51.3,0-99.8,20.2-136.5,56.8c-36.7,36.6-57,85.1-57,136.4
				c0,106.8,86.8,193.7,193.5,193.7c106.7,0,193.5-86.9,193.5-193.7C1088.9,518.3,1002.1,431.7,895.4,431.7z M895.4,439.7
				c102.3,0,185.5,83.1,185.5,185.2c0,102.4-83.2,185.8-185.5,185.8c-102.3,0-185.5-83.4-185.5-185.8c0-49.2,19.4-95.6,54.6-130.7
				C799.8,459,846.2,439.7,895.4,439.7z"/>
			<g>
				<defs>
					<path id="SVGID_2_" d="M895.5,800c97.1,0,175.9-79.1,175.9-176.2c0-96.5-78.8-175.6-175.9-175.6
						c-96.4,0-175.9,79.1-175.9,175.6C719.5,720.9,799,800,895.5,800L895.5,800z"/>
				</defs>
				<clipPath id="SVGID_3_">
					<use xlink:href="#SVGID_2_"  style="overflow:visible;"/>
				</clipPath>
				<path id="path3530_2_" class="st5" d="M835.8,464.4c-0.9,0-1.9,0.4-2.9,0.9C835.3,464.6,836.4,464.4,835.8,464.4 M893.6,475.6
					l0.6-8.5l-8.9,0.6l1.2,7.9L893.6,475.6 M792.9,621.8c-1.8-1.7-0.6-9-0.6-9s-26.8-14.1-56-22.6c-3.6-1-1.8-8.5,1.8-11.3l-1.2-7.9
					c-0.6-3.9,6-23.1,12.5-24.8c6.6-1.7-0.6,11.3-0.6,11.3l-6.5,4c0,0,7.7,9,9.5,9c1.8,0,4.8-4.5,4.8-4.5l-8.3-5.6l7.7-3.4l0.5-3
					l1.3-0.4l12.8-19.4c8.9-3.6,19.8-8.1,21.1-8.8c2.4-1.1,19.1-10.7,22-13c3-2.3,9.5-1.7,11.9-1.7c2.4,0,6-1.1,6.6-7.4
					c0.6-6.2,3-7.3,4.8-5.6c1.8,1.7-1.8,4.5,2.4,5.6c4.2,1.1,7.7,4,10.7,1.1c2.2-2.1-0.7-4.4-2.7-6.2h33.1l3.6-10.2l-7.7-1.1
					l-28.6-2.8v-3.4l-2.3,0.4c3.1-17,21.5-14.2,7.6-24.1c-0.8-0.6-13,19.1-16,18.7c-5.6-0.7-12.8-0.8-14.3,1
					c-2,2.4,4.6-8.2,10.3-11.5c-6.8,2-18.9-4.2-40.9,11.3c-7.4,5.2-26,26.5-33.7,34.6c-32.3,38.2-34.9,70.8-34.9,72.3
					c0,2.8,6.9,4.4,7.4,7.8c0.6,3.4-11.3,14.7-11.3,20.3c0,2.6-6,30.8,7.1,66c11.6,33.4,34.1,62.9,37,64.8l8.3-4.4
					c0,0-13.7-24.3-14.3-26.5c-0.6-2.2,15.5-35,23.2-33.8c7.7,1.1,6,3.4,10.7,0.6c4.8-2.8,7.7-26,13.1-28.2
					c5.4-2.3,11.3-5.1,10.7-10.7C815,633.6,794.7,623.5,792.9,621.8 M922.2,455.9l-16.1-5.7l3,9L922.2,455.9 M862,476.8
					c1.8,0,37.5-23.7,34-24.3c-3.6-0.6-4.2,0-13.7-1.1c-9.5-1.1-19.7,13.5-22,15.8C857.9,469.5,858.7,476.8,862,476.8 M1026.1,646.9
					l4.6-6l-4.6-1.6l-3.5,4.3l-4,6l3.4,1.6L1026.1,646.9 M1046.3,666.5l-1.2-8.7h-7.5l-0.6,6.5l-6.9-1.1l-1.7-7.1l-3.5-2.2l-4,4.9
					l-4-1.1l-1.2,3.8l4.6,1.1V698l16.3,3.9c-0.4,0.6-0.7,1.2-0.7,1.5c-1.2,3.8,4.6,5.5,8.6,3.8c1.5-0.6,10.9-4.2,13.9-11.3
					c4.1-9.9,6.8-24.1,7.6-28.7l-1.8-4l-11.5,4.4L1046.3,666.5L1046.3,666.5 M1040.5,521.8c-26.4-40-89.8-66.1-89.8-66.1l-16.3,8.6
					l-2.3-3.8l-5.8-2.2v4.9l5.2,4.4l-3.4,1.6l-13.3,1.1l-30,16.3l2.9,13.1l-3.5,1.1l-1.7,2.7l9.8,14.7l0.6,4.9l-8.1,1.6v9.8
					l-4.6,1.1l0.6,7.6l-39.2,27.2l1.2,15.2c2.9,3.8,25.4,26.6,25.4,26.6s25.9,1.1,31.7-2.2c5.8-3.3,1.7,3.3,3.5,4.9
					c1.7,1.6,2.3,13.1,4,14.1c1.7,1.1,0,7.6,2.3,9.8c2.3,2.2,2.3,28.3,2.3,28.3s13.8,23.4,13.8,29.4c0,6-0.6,5.4,10.4,4.9
					c11-0.5,13.3-4.9,15.6-6.5c2.3-1.6,2.3-5.4,4.6-8.7c2.3-3.3,6.4-15.8,11.5-20.1c5.2-4.4,19-7.6,20.2-15.2
					c1.2-7.6,6.3-13.6,6.3-13.6l24.9-26.4l-0.7,3.5l-0.6,13.6l7.5-2.7l-0.6-14.7l-2.7-2.8l0.4-0.4c0,0-1.7-3.3-4-3.3
					c-2.3,0-16.2,3.3-18.5,2.7c-2.3-0.5-12.1-26.6-13.8-27.7c-1.7-1.1-12.7-19-12.7-19s25.4,30.4,29.4,42.4c2.3,7,11.2,0.5,18.3-6.8
					l1.9,4.6l4.6-1.1l-0.6-5.4h5.2v8.2l-1.7,4.4l-0.6,7.1l4.6,4.4l2.3-3.8l7.5-7.1l8.7-4.3l2.3,4.3l1.2,6l-2.3,6.5l-4.6,3.8
					l-2.3,9.8v4.9l-5.2-3.3l-0.6-10.3l-7.5,0.6l-3.4,9.2l5.2,7.6l12.1,1.6l9.8-9.3l1.2-17.9l4.4-5.8c2.8,7.3,4.9,14.9,4.9,22.1
					c0,7.8,6.2-3.9,3.2-27.8C1071.4,604.5,1066.6,547.9,1040.5,521.8L1040.5,521.8z M925.2,545.2l-31.1-1.1l13.2-10.9h6.9l11,7.6
					L925.2,545.2 M963.2,541.4v4.9H950l1.2,3.3l-8.1,1.1l-0.6,2.7l-5.8-1.1l-10.4-2.2l1.7-2.7l1.7-3.3l5.8-6l2.3,4.4l8.6-0.5
					l4.6-4.9l17.9,3.3L963.2,541.4 M964.4,534.3l-6.9,1.1l-1.1-4.9l8.6-1.1l1.2-4.9l6.4,6.5L964.4,534.3L964.4,534.3 M997.8,703.4
					l-4,3.3l0.6,8.2h5.2v-7l4.6-6v-12.5l-2.9-0.6L997.8,703.4L997.8,703.4 M959.2,687.1c0,0-4,1,0.6,2.7
					c4.6,1.6,23.1-26.6,23.1-26.6l-15.6,9.8L959.2,687.1L959.2,687.1 M927.8,791.3l-3.4-3.3l-6.9-1.1l-1.1,3.3l-9.2-1.1l-0.6-4.4
					h-6.9l-7.5,4.4h-13.2l-1.2-3.3l-21.3-2.2l-3.5,3.3l-8.6-2.2l-1.2-7.7l-4-0.6l-4.6,8.2l-15.6-0.6c2.8,1.3,26,15.2,61.7,18.1
					c47.3,3.8,69.7-7.7,69.7-7.7l-1.7-1.7L927.8,791.3L927.8,791.3L927.8,791.3L927.8,791.3z"/>
			</g>
		</g>
	</g>
</g>
</svg>
