<?xml version="1.0" encoding="utf-8"?>
<!-- Generator: Adobe Illustrator 19.1.1, SVG Export Plug-In . SVG Version: 6.00 Build 0)  -->
<svg version="1.1" id="Capa_1" xmlns="http://www.w3.org/2000/svg" xmlns:xlink="http://www.w3.org/1999/xlink" x="0px" y="0px"
	 viewBox="-247 48.2 464.8 464.8" style="enable-background:new -247 48.2 464.8 464.8;" xml:space="preserve">
<style type="text/css">
	.st0{fill:#F15A24;}
</style>
<g>
	<g id="Layer_3_49_">
		<path class="st0" d="M30.8,197.7H9.7c-2.7,0-5-2.2-5-5s2.2-5,5-5h21.1c2.7,0,5,2.2,5,5S33.5,197.7,30.8,197.7z"/>
		<g>
			<path class="st0" d="M94.3,270.2c-68.1,0-123.5,49.1-123.5,117.2c0,32.6,12.9,62.4,36.5,83.9c22.8,20.9,53.7,32.4,87,32.4
				s64.2-11.5,87-32.4c23.5-21.5,36.5-51.3,36.5-83.9C217.8,319.4,162.4,270.2,94.3,270.2z M94.3,440c-29,0-52.6-23.6-52.6-52.6
				s23.6-52.6,52.6-52.6s52.6,23.6,52.6,52.6C146.9,416.4,123.3,440,94.3,440z"/>
			<path class="st0" d="M-159.7,334c-48.2,0-87.4,39.2-87.4,87.4c0,23.1,9.2,44.2,25.8,59.4c16.2,14.8,38,22.9,61.6,22.9
				s45.4-8.1,61.6-22.9c16.6-15.2,25.8-36.3,25.8-59.4C-72.3,373.2-111.5,334-159.7,334z M-159.7,458.5c-20.4,0-37.1-16.6-37.1-37.1
				c0-20.4,16.6-37.1,37.1-37.1s37.1,16.6,37.1,37.1C-122.6,441.8-139.3,458.5-159.7,458.5z"/>
			<path class="st0" d="M-1.8,293.8c25.3-23.6,59.5-36.6,96.1-36.6c24.7,0,48.2,5.9,68.7,17c0.1,0.1,0.2,0.1,0.3,0.1
				c1.9,1.4,4.2,2.1,6.7,1.8c5.5-0.5,9.6-5.3,9.1-10.8c-0.1-1-9.4-104.9-11.1-125.3c-2.8-32.2-26-32.2-34.8-32.2h-135
				c-12,0-34.4,0-41.3,34.1c-3.9,19.2-12.4,59.7-19,90.5c-34.7,0-67.2,0-92.3,0v-50.6c0-7.4-6-13.4-13.4-13.4s-13.4,6-13.4,13.4
				v50.6c-12.8,0-20.9,0-22.5,0c-38.7,0-50.6,83.1-29.3,120.3c18.3-19.5,44.4-31.8,73.2-31.8c50.5,0,92.4,37.5,99.4,86.1h19.6
				c-1-6.4-1.4-13-1.4-19.6C-42.2,351.2-27.8,318-1.8,293.8z M148.1,141.7c1.1,12.8,5.1,58.2,8,90.7c-15.8,0-46.3,0-83.1,0V127.8
				h60.2C142.9,127.8,146.9,128.3,148.1,141.7z M-23.5,145.9c3.7-18.1,10.5-18.1,21.7-18.1H57v104.7c-31,0-65.3,0-98.6,0
				C-34.7,199.8-26.2,159.5-23.5,145.9z"/>
		</g>
	</g>
</g>
</svg>
