<?xml version="1.0" encoding="utf-8"?>
<!-- Generator: Adobe Illustrator 19.1.1, SVG Export Plug-In . SVG Version: 6.00 Build 0)  -->
<svg version="1.1" id="Capa_1" xmlns="http://www.w3.org/2000/svg" xmlns:xlink="http://www.w3.org/1999/xlink" x="0px" y="0px"
	 viewBox="-243 44.9 472.1 472.1" style="enable-background:new -243 44.9 472.1 472.1;" xml:space="preserve">
<style type="text/css">
	.st0{fill:#F15A24;}
</style>
<g>
	<path class="st0" d="M190.3,120.4c-1.7-3.4-5.1-5.5-8.9-5.5h-32v-9c0-5.5-4.5-10-10-10s-10,4.5-10,10v9h-20v-9c0-5.5-4.5-10-10-10
		s-10,4.5-10,10v9H43l-8.2-57.1c-1.1-7.4-7.4-12.9-14.8-12.9h-54c-7.5,0-13.8,5.5-14.8,12.9l-8.2,57.1h-46.4v-9c0-5.5-4.5-10-10-10
		s-10,4.5-10,10v9h-20v-9c0-5.5-4.5-10-10-10s-10,4.5-10,10v9h-32c-3.8,0-7.2,2.1-8.9,5.5c-1.7,3.4-1.4,7.4,0.8,10.4l30,41
		c1.9,2.6,4.9,4.1,8.1,4.1h99.6l-41.8,289.6H-123c-5.5,0-10,4.5-10,10V507c0,5.5,4.5,10,10,10h232.5c5.5,0,10-4.5,10-10v-31.5
		c0-5.5-4.5-10-10-10H93.6L51.8,175.9h99.6c3.2,0,6.2-1.5,8.1-4.1l30-41C191.8,127.8,192.1,123.7,190.3,120.4z M-39.2,200.7l50,37.3
		l-61,38.8L-39.2,200.7z M-56.2,318.4l82.1,63l-101.8,73.8L-56.2,318.4z M53.6,398.3l9,62.2h-94.8L53.6,398.3z M-30.9,300l64.4-41
		l14.7,101.7L-30.9,300z M-21.3,176.6l38.2-32.3l9.8,68.2L-21.3,176.6z M6.9,74.9l5,34.4l-43.2,36.5l10.2-70.9H6.9z M-160.4,155.9
		l-15.4-21h115.8l-3,21H-160.4z M146.4,155.9H48.9l-3-21h115.8L146.4,155.9z"/>
</g>
</svg>
