<?xml version="1.0" encoding="utf-8"?>
<!-- Generator: Adobe Illustrator 19.1.1, SVG Export Plug-In . SVG Version: 6.00 Build 0)  -->
<svg version="1.1" id="Capa_1" xmlns="http://www.w3.org/2000/svg" xmlns:xlink="http://www.w3.org/1999/xlink" x="0px" y="0px"
	 viewBox="-189 -9.4 579.4 579.4" style="enable-background:new -189 -9.4 579.4 579.4;" xml:space="preserve">
<style type="text/css">
	.st0{fill:#00A99D;}
</style>
<g>
	<g>
		<path class="st0" d="M236.3,151.8c0-38.3-31.1-69.4-69.4-69.4c-1.3,0-2.6,0.1-3.8,0.2c2.4-7.1,3.8-14.7,3.8-22.6
			c0-38.3-31.1-69.4-69.4-69.4C59.3-9.4,28.3,21.7,28.3,60c0,7.9,1.4,15.5,3.8,22.6C-5.2,83.8-35,114.3-35,151.8
			c0,28.2,16.8,52.4,41,63.2c-24.1,10.9-41,35.1-41,63.2c0,23.7,11.9,44.6,30.1,57.1C-23.1,347.9-35,368.8-35,392.5
			c0,38.3,31.1,69.4,69.4,69.4c16.2,0,31-5.6,42.8-14.9v82.2h-6.1c-26.3,0-26.3,40.8,0,40.8h53c26.3,0,26.3-40.8,0-40.8H118v-87.6
			c12.5,12.5,29.9,20.2,49,20.2c38.3,0,69.4-31.1,69.4-69.4c0-23.7-11.9-44.6-30.1-57.1c18.1-12.5,30.1-33.4,30.1-57.1
			c0-28.2-16.8-52.4-41-63.2C219.5,204.2,236.3,180,236.3,151.8z M100.7,131.4c-0.2-0.7-0.5-1.4-0.8-2.2c0.5,0,1,0,1.5-0.1
			C101.2,129.9,100.9,130.6,100.7,131.4z"/>
	</g>
</g>
</svg>
