<?xml version="1.0" encoding="utf-8"?>
<!-- Generator: Adobe Illustrator 19.1.1, SVG Export Plug-In . SVG Version: 6.00 Build 0)  -->
<svg version="1.1" id="Capa_1" xmlns="http://www.w3.org/2000/svg" xmlns:xlink="http://www.w3.org/1999/xlink" x="0px" y="0px"
	 viewBox="-189 -9.4 579.4 579.4" style="enable-background:new -189 -9.4 579.4 579.4;" xml:space="preserve">
<style type="text/css">
	.st0{fill:#F15A24;}
</style>
<g>
	<g>
		<path class="st0" d="M226.5,151.8c0-38.3-31.1-69.4-69.4-69.4c-1.3,0-2.6,0.1-3.8,0.2c2.4-7.1,3.8-14.7,3.8-22.6
			c0-38.3-31.1-69.4-69.4-69.4C49.5-9.4,18.5,21.7,18.5,60c0,7.9,1.4,15.5,3.8,22.6c-37.3,1.2-67.1,31.7-67.1,69.2
			c0,28.2,16.8,52.4,41,63.2c-24.1,10.9-41,35.1-41,63.2c0,23.7,11.9,44.6,30.1,57.1c-18.2,12.6-30.1,33.5-30.1,57.2
			c0,38.3,31.1,69.4,69.4,69.4c16.2,0,31-5.6,42.8-14.9v82.2h-6.1c-26.3,0-26.3,40.8,0,40.8h53c26.3,0,26.3-40.8,0-40.8h-6.1v-87.6
			c12.5,12.5,29.9,20.2,49,20.2c38.3,0,69.4-31.1,69.4-69.4c0-23.7-11.9-44.6-30.1-57.1c18.1-12.5,30.1-33.4,30.1-57.1
			c0-28.2-16.8-52.4-41-63.2C209.7,204.2,226.5,180,226.5,151.8z"/>
	</g>
</g>
</svg>
