<?xml version="1.0" encoding="utf-8"?>
<!-- Generator: Adobe Illustrator 19.1.1, SVG Export Plug-In . SVG Version: 6.00 Build 0)  -->
<svg version="1.1" id="Lager_1" xmlns="http://www.w3.org/2000/svg" xmlns:xlink="http://www.w3.org/1999/xlink" x="0px" y="0px"
	 viewBox="0 0 960 560" style="enable-background:new 0 0 960 560;" xml:space="preserve">
<style type="text/css">
	.st0{fill:#F15A24;}
</style>
<g>
	<g>
		<g>
			<path class="st0" d="M200.9,382.7V91.7c0-27.5-21-48.5-48.5-48.5s-48.5,22.6-48.5,48.5v290.8c-19.4,14.5-32.3,38.8-32.3,64.6
				c0,45.2,35.6,80.8,80.8,80.8s80.8-35.6,80.8-80.8C233.2,421.4,220.2,397.2,200.9,382.7z M152.4,511.9
				c-35.6,0-64.6-29.1-64.6-64.6c0-24.2,12.9-45.2,32.3-56.5v-299c0-17.7,14.5-32.3,32.3-32.3s32.3,14.5,32.3,32.3v298.9
				c19.4,11.3,32.3,32.3,32.3,56.5C217,482.8,188,511.9,152.4,511.9z"/>
		</g>
	</g>
</g>
<circle class="st0" cx="152" cy="449" r="51"/>
</svg>
